<svg height="24" viewBox="0 0 369 24" width="369" xmlns="http://www.w3.org/2000/svg"><g fill="none"><path d="m0 24v-24h66v6h-6v6h-6v12z" fill="#f0f0f0"/><path d="m24 18v-12h-18v12z" fill="#f0f0f0"/><path d="m48 6h-18v12h18z" fill="#f0f0f0"/><path d="m30 18v-12h18v12z" fill="#328dfd"/><path d="m6 18v-12h18v12z" fill="#fd3232"/><g fill="#fff"><path d="m87.0332031 1.8203125h16.1874999v4.046875h-12.1406249v4.046875h12.1406249v4.046875h-12.1406249v8.0390625h-4.046875z"/><path d="m103.220703 5.8671875h4.046875v4.046875h-4.046875z"/><path d="m110.685547 1.8203125h4.046875v8.09375h12.140625v-8.09375h4.046875v20.1796875h-4.046875v-8.0390625h-12.140625v8.0390625h-4.046875z"/><path d="m134.337891 1.8203125h16.1875v4.046875h-12.140625v4.046875h12.140625v4.046875h-12.140625v8.0390625h-4.046875z"/><path d="m150.525391 5.8671875h4.046875v4.046875h-4.046875z"/><path d="m150.525391 13.9609375h4.046875v8.0390625h-4.046875z"/><path d="m157.990234 1.8203125h20.234375v4.046875h-16.1875v4.046875h12.140625v4.046875h-12.140625v4.046875h16.1875v3.9921875h-20.234375z"/><path d="m181.642578 1.8203125h20.234375v4.046875h-16.1875v4.046875h12.140625v4.046875h-12.140625v4.046875h16.1875v3.9921875h-20.234375z"/><path d="m205.294922 18.0078125h4.046875v3.9921875h-4.046875z"/><path d="m222.330078 1.8203125h16.1875v4.046875h-12.140625v4.046875h12.140625v4.046875h-12.140625v8.0390625h-4.046875z"/><path d="m238.517578 5.8671875h4.046875v4.046875h-4.046875z"/><path d="m245.982422 1.8203125h4.046875v8.09375h12.140625v-8.09375h4.046875v20.1796875h-4.046875v-8.0390625h-12.140625v8.0390625h-4.046875z"/><path d="m269.634766 1.8203125h4.046875v16.1875h-4.046875z"/><path d="m285.822266 1.8203125h4.046875v16.1875h-4.046875z"/><path d="m273.681641 18.0078125h12.140625v3.9921875h-12.140625z"/><path d="m293.287109 1.8203125h4.046875v4.046875h4.046875v4.046875h-4.046875v12.0859375h-4.046875z"/><path d="m309.474609 1.8203125h4.046875v20.1796875h-4.046875v-3.9921875h-4.046875v-4.046875h4.046875z"/><path d="m301.380859 9.9140625h4.046875v4.046875h-4.046875z"/><path d="m316.939453 1.8203125h4.046875v8.09375h8.09375v4.046875h-8.09375v8.0390625h-4.046875z"/><path d="m333.126953 1.8203125h4.046875v4.046875h-4.046875z"/><path d="m329.080078 5.8671875h4.046875v4.046875h-4.046875z"/><path d="m329.080078 13.9609375h4.046875v4.046875h-4.046875z"/><path d="m333.126953 18.0078125h4.046875v3.9921875h-4.046875z"/><path d="m340.591797 1.8203125h4.046875v4.046875h-4.046875z"/><path d="m356.779297 1.8203125h4.046875v4.046875h-4.046875z"/><path d="m344.638672 5.8671875h4.046875v4.046875h-4.046875z"/><path d="m352.732422 5.8671875h4.046875v4.046875h-4.046875z"/><path d="m348.685547 9.9140625h4.046875v12.0859375h-4.046875z"/><path d="m364.244141 18.0078125h4.046875v3.9921875h-4.046875z"/></g></g></svg>