
<svg width="24px" height="24px" viewBox="0 0 24 24" version="1.1" xmlns="http://www.w3.org/2000/svg"><g id="Page-1" stroke="none" stroke-width="1" fill="none" fill-rule="evenodd"><path d="M2.18177563,4.36361813 L4.36361813,4.36361813 L4.36361813,6.54546062 L2.18177563,6.54546062 L2.18177563,4.36361813 Z M8.72723626,24 L8.72723626,21.8181575 L17.4545394,21.8181575 L17.4545394,24 L8.72723626,24 Z M4.36361813,21.8181575 L4.36361813,19.636315 L8.72723626,19.636315 L8.72723626,21.8181575 L4.36361813,21.8181575 Z M0,8.72723626 L2.18170877,8.72723626 L2.18177563,6.54546062 L4.36361813,6.54546062 L4.36361813,8.72730312 L2.1818425,8.72730312 L2.1818425,15.2726969 L4.36361813,15.2726969 L4.36361813,19.636315 L2.18177563,19.636315 L2.18177563,15.2726969 L0,15.2726969 L0,8.72723626 Z M21.8181575,19.636315 L19.636315,19.636315 L19.636315,21.8181575 L17.4544725,21.8181575 L17.4544725,19.636315 L19.636315,19.636315 L19.636315,15.2726969 L17.4544725,15.2726969 L17.4544725,13.0908544 L19.6362481,13.0908544 L19.636315,10.9090788 L21.8181575,10.9090788 L21.8181575,13.0909212 L19.636315,13.0909212 L19.636315,15.2726969 L21.8181575,15.2726969 L21.8181575,19.636315 Z M10.9090119,4.36361813 L10.9090119,2.1818425 L8.72723626,2.1818425 L8.72723626,-1.13686838e-13 L13.0909212,-1.13686838e-13 L13.0908544,4.36361813 L10.9090788,4.36361813 L10.9090788,6.54546062 L8.72723626,6.54546062 L8.72723626,4.36361813 L10.9090119,4.36361813 Z M4.36361813,4.36361813 L4.36361813,2.18177563 L8.72723626,2.18177563 L8.72723626,4.36361813 L4.36361813,4.36361813 Z M8.72723626,13.0909212 L6.54539376,13.0909212 L6.54539376,6.54546062 L8.72723626,6.54546062 L8.72723626,13.0909212 Z M24,15.2726969 L21.8181575,15.2726969 L21.8181575,10.9090788 L24,10.9090788 L24,15.2726969 Z M8.72723626,15.2726969 L8.72723626,13.0908544 L10.9090788,13.0908544 L10.9090788,15.2726969 L17.4544725,15.2726969 L17.4544725,17.4545394 L10.9090119,17.4545394 L10.9090119,15.2726969 L8.72723626,15.2726969 Z" id="moon" fill="#000000" fill-rule="nonzero"></path><path d="M13.0909212,19.636315 L13.0909212,23.9999331 L10.9090788,23.9999331 L10.9090788,19.636315 L13.0909212,19.636315 Z M19.6363819,17.4544725 L19.6363819,19.636315 L21.8181575,19.636315 L21.8181575,21.8181575 L19.636315,21.8181575 L19.636315,19.636315 L17.4545394,19.636315 L17.4545394,17.4544725 L19.6363819,17.4544725 Z M8.72730312,17.4544725 L8.72730312,15.27263 L15.2727637,15.2726969 L15.2727637,17.4545394 L8.72730312,17.4544725 Z M10.9091456,6.54539376 L10.9091456,6.54539376 L15.2727637,6.54539376 L15.2727637,8.72716939 L17.4546062,8.72723626 L17.4546062,15.2726969 L15.2727637,15.2726969 L15.2726969,8.72730312 L8.72730312,8.72723626 L8.72730312,6.54539376 L10.9091456,6.54539376 Z M21.8181575,10.9090119 L21.8181575,13.0908544 L19.636315,13.0908544 L19.636315,10.9090119 L21.8181575,10.9090119 Z M19.6363819,4.36388558 L19.6363819,6.54572808 L17.4545394,6.54572808 L17.4545394,4.36388558 L19.6363819,4.36388558 Z M19.6363819,2.18177563 L21.8182244,2.18177563 L21.8182244,4.36361813 L19.6363819,4.36361813 L19.6363819,2.18177563 Z M6.54552749,4.36361813 L6.54552749,6.54546062 L4.36368499,6.54546062 L4.36368499,4.36361813 L6.54552749,4.36361813 Z M4.36368499,2.18177563 L4.36368499,4.36361813 L2.1818425,4.36361813 L2.1818425,2.18177563 L4.36368499,2.18177563 Z M13.0909881,4.36361813 L10.9091456,4.36361813 L10.9091456,5.68434189e-14 L13.0909881,5.68434189e-14 L13.0909881,4.36361813 Z M6.54546062,8.72723626 L8.72730312,8.72723626 L8.72730312,15.2726969 L6.54546062,15.2726969 L6.54546062,8.72723626 Z M4.36375186,13.0908544 L2.18190936,13.0908544 L2.18190936,10.9090119 L4.36375186,10.9090119 L4.36375186,13.0908544 Z M2.1818425,13.0908544 L-2.27373675e-13,13.0908544 L-2.27373675e-13,10.9090119 L2.1818425,10.9090119 L2.1818425,13.0908544 Z M24,13.0908544 L21.8181575,13.0908544 L21.8181575,10.9090119 L24,10.9090119 L24,13.0908544 Z M6.54552749,19.6360476 L4.36368499,19.6360476 L4.36368499,17.4542051 L6.54552749,17.4542051 L6.54552749,19.6360476 Z M4.36375186,21.8181575 L2.18190936,21.8181575 L2.18190936,19.636315 L4.36375186,19.636315 L4.36375186,21.8181575 Z" id="sun" fill="#000000" fill-rule="nonzero"></path></g></svg>