<svg height="60" viewBox="0 0 150 60" width="150" xmlns="http://www.w3.org/2000/svg"><g fill="rgb(19, 20, 21)" fill-rule="evenodd"><path d="m140 50h10v10h-10z"/><path d="m130 50h10v10h-10z" opacity=".8"/><path d="m120 50h10v10h-10z"/><path d="m110 50h10v10h-10z" opacity=".9"/><path d="m100 50h10v10h-10z"/><path d="m90 50h10v10h-10z"/><path d="m80 50h10v10h-10z"/><path d="m70 50h10v10h-10z" opacity=".9"/><path d="m60 50h10v10h-10z" opacity=".8"/><path d="m50 50h10v10h-10z" opacity=".7"/><path d="m40 50h10v10h-10z"/><path d="m30 50h10v10h-10z"/><path d="m20 50h10v10h-10z" opacity=".8"/><path d="m10 50h10v10h-10z" opacity=".9"/><path d="m0 50h10v10h-10z" opacity=".9"/><path d="m140 40h10v10h-10z"/><path d="m130 40h10v10h-10z" opacity=".8"/><path d="m120 40h10v10h-10z" opacity=".8"/><path d="m110 40h10v10h-10z"/><path d="m100 40h10v10h-10z" opacity=".7"/><path d="m90 40h10v10h-10z" opacity=".7"/><path d="m80 40h10v10h-10z" opacity=".8"/><path d="m70 40h10v10h-10z" opacity=".9"/><path d="m60 40h10v10h-10z" opacity=".9"/><path d="m50 40h10v10h-10z"/><path d="m40 40h10v10h-10z"/><path d="m30 40h10v10h-10z" opacity=".9"/><path d="m20 40h10v10h-10z" opacity=".7"/><path d="m10 40h10v10h-10z" opacity=".8"/><path d="m0 40h10v10h-10z" opacity=".7"/><path d="m140 30h10v10h-10z" opacity=".9"/><path d="m130 30h10v10h-10z"/><path d="m120 30h10v10h-10z" opacity=".7"/><path d="m110 30h10v10h-10z"/><path d="m100 30h10v10h-10z" opacity=".8"/><path d="m90 30h10v10h-10z"/><path d="m80 30h10v10h-10z" opacity=".7"/><path d="m70 30h10v10h-10z" opacity=".7"/><path d="m60 30h10v10h-10z" opacity=".9"/><path d="m50 30h10v10h-10z" opacity=".7"/><path d="m40 30h10v10h-10z"/><path d="m30 30h10v10h-10z" opacity=".8"/><path d="m20 30h10v10h-10z"/><path d="m10 30h10v10h-10z"/><path d="m0 30h10v10h-10z" opacity=".8"/><path d="m140 20h10v10h-10z"/><path d="m130 20h10v10h-10z" opacity=".8"/><path d="m120 20h10v10h-10z"/><path d="m110 20h10v10h-10z" opacity=".8"/><path d="m100 20h10v10h-10z"/><path d="m90 20h10v10h-10z" opacity=".7"/><path d="m80 20h10v10h-10z"/><path d="m70 20h10v10h-10z"/><path d="m60 20h10v10h-10z" opacity=".9"/><path d="m50 20h10v10h-10z" opacity=".8"/><path d="m40 20h10v10h-10z" opacity=".7"/><path d="m30 20h10v10h-10z"/><path d="m20 20h10v10h-10z"/><path d="m10 20h10v10h-10z" opacity=".9"/><path d="m0 20h10v10h-10z" opacity=".7"/><path d="m140 10h10v10h-10z" opacity=".7"/><path d="m130 10h10v10h-10z" opacity=".8"/><path d="m120 10h10v10h-10z" opacity=".8"/><path d="m110 10h10v10h-10z"/><path d="m100 10h10v10h-10z" opacity=".8"/><path d="m90 10h10v10h-10z" opacity=".9"/><path d="m80 10h10v10h-10z"/><path d="m70 10h10v10h-10z" opacity=".7"/><path d="m60 10h10v10h-10z"/><path d="m50 10h10v10h-10z"/><path d="m40 10h10v10h-10z"/><path d="m30 10h10v10h-10z" opacity=".9"/><path d="m20 10h10v10h-10z" opacity=".7"/><path d="m10 10h10v10h-10z" opacity=".7"/><path d="m0 10h10v10h-10z"/><path d="m140 0h10v10h-10z" opacity=".9"/><path d="m130 0h10v10h-10z"/><path d="m120 0h10v10h-10z" opacity=".7"/><path d="m110 0h10v10h-10z" opacity=".7"/><path d="m100 0h10v10h-10z"/><path d="m90 0h10v10h-10z"/><path d="m80 0h10v10h-10z" opacity=".8"/><path d="m70 0h10v10h-10z"/><path d="m60 0h10v10h-10z"/><path d="m50 0h10v10h-10z"/><path d="m40 0h10v10h-10z" opacity=".7"/><path d="m30 0h10v10h-10z"/><path d="m20 0h10v10h-10z"/><path d="m10 0h10v10h-10z" opacity=".8"/><path d="m0 0h10v10h-10z" opacity=".9"/></g></svg>